# xmcd CD database file
#
# Track frame offsets:
#	150
#	19988
#	36895
#	54828
#	74288
#	97125
#	117015
#	130338
#	148870
#	167063
#
# Disc length: 2486 seconds
#
# Revision: 0
# Processed by: cddbd v1.5.1PL0 Copyright (c) Steve Scherf et al.
# Submitted via: CDex 1.60beta1
#
DISCID=8d09b40a
DTITLE=小野真弓 - SMILE
DYEAR=2005
DGENRE=JPop
TTITLE0=little smile
TTITLE1=Happiness
TTITLE2=海岸通
TTITLE3=シーソー
TTITLE4=春 (album mix)
TTITLE5=君の手紙
TTITLE6=ガムの唄
TTITLE7=ホットミルク
TTITLE8=朱色のそら (new vocal)
TTITLE9=未・来・形
EXTD=YEAR: 2005
EXTT0=
EXTT1=
EXTT2=
EXTT3=
EXTT4=
EXTT5=
EXTT6=
EXTT7=
EXTT8=
EXTT9=
PLAYORDER=
